<svg width="900" height="216" viewBox="0 0 900 216" fill="none" xmlns="http://www.w3.org/2000/svg">
<path d="M642.253 153.3C639.453 161.7 638.053 169.4 638.053 176.4C638.053 183.2 638.753 189.2 640.153 194.4C641.753 199.4 643.653 203.5 645.853 206.7C648.253 209.7 650.453 211.8 652.453 213H605.953L683.053 0H716.353L806.953 213H758.953L722.953 127.2H650.953L642.253 153.3ZM718.753 117.3L683.053 32.7L654.553 117.3H718.753Z" fill="#2D2D2D"/>
<path d="M428.32 213V0H495.22C502.82 0 511.62 0.400003 521.62 1.2C531.62 2.00001 541.02 3.9 549.82 6.9C558.82 9.9 566.32 14.4 572.32 20.4C578.52 26.4 581.62 34.6 581.62 45C581.62 53.4 579.72 60.5 575.92 66.3C572.12 72.1 567.22 76.9 561.22 80.7C555.42 84.3 548.92 87.1 541.72 89.1C534.52 90.9 527.42 92.2 520.42 93C528.62 93.8 537.02 95.5 545.62 98.1C554.42 100.5 562.42 104 569.62 108.6C576.82 113 582.72 118.7 587.32 125.7C592.12 132.5 594.52 140.8 594.52 150.6C594.52 163.2 591.42 173.6 585.22 181.8C579.22 189.8 571.52 196.1 562.12 200.7C552.72 205.3 542.42 208.5 531.22 210.3C520.02 212.1 509.42 213 499.42 213H428.32ZM499.42 202.5C508.62 202.5 516.32 201.5 522.52 199.5C528.72 197.5 533.62 194.4 537.22 190.2C541.02 186 543.72 180.7 545.32 174.3C546.92 167.9 547.72 160.3 547.72 151.5C547.72 142.1 546.22 134 543.22 127.2C540.42 120.4 536.42 114.8 531.22 110.4C526.02 106 519.72 102.8 512.32 100.8C504.92 98.8 496.82 97.8 488.02 97.8H468.82V188.7C468.82 191.1 468.92 193.5 469.12 195.9C469.52 198.3 470.52 200.5 472.12 202.5H499.42ZM488.02 87.3C494.62 87.3 500.92 86.7 506.92 85.5C513.12 84.3 518.52 82.2 523.12 79.2C527.92 76.2 531.72 72.2 534.52 67.2C537.32 62.2 538.72 55.9 538.72 48.3C538.72 41.9 537.52 36.4 535.12 31.8C532.72 27.2 529.52 23.3 525.52 20.1C521.52 16.9 516.92 14.6 511.72 13.2C506.52 11.6 501.02 10.8 495.22 10.8H471.82C470.22 12.4 469.32 14.2 469.12 16.2C468.92 18.2 468.82 20.2 468.82 22.2V87.3H488.02Z" fill="#2D2D2D"/>
<path d="M381.384 138.6C381.384 150.4 379.584 161.1 375.984 170.7C372.584 180.3 367.584 188.5 360.984 195.3C354.584 201.9 346.684 207 337.284 210.6C327.884 214.2 317.184 216 305.184 216C293.584 216 282.584 214.3 272.184 210.9C261.784 207.3 252.584 202.2 244.584 195.6C236.584 189 230.184 180.9 225.384 171.3C220.784 161.7 218.484 150.8 218.484 138.6V0H258.984V130.5C258.984 138.9 259.884 147.3 261.684 155.7C263.484 163.9 266.384 171.3 270.384 177.9C274.584 184.3 279.984 189.5 286.584 193.5C293.384 197.5 301.684 199.5 311.484 199.5C320.884 199.5 329.184 197.9 336.384 194.7C343.584 191.5 349.684 187.1 354.684 181.5C359.684 175.7 363.384 169 365.784 161.4C368.384 153.8 369.684 145.5 369.684 136.5C369.684 112.3 366.284 88.6 359.484 65.4C352.684 42.2 341.684 20.4 326.484 0H381.384V138.6Z" fill="#2D2D2D"/>
<path d="M0 213V0H55.5C72.7 0 89 2 104.4 6C120 10 133.6 16.3 145.2 24.9C157 33.5 166.3 44.6 173.1 58.2C179.9 71.6 183.3 87.9 183.3 107.1C183.3 126.5 179.9 143 173.1 156.6C166.3 170 157.1 180.9 145.5 189.3C133.9 197.7 120.3 203.8 104.7 207.6C89.3 211.2 72.9 213 55.5 213H0ZM55.5 202.5C69.7 202.5 81.8 200 91.8 195C102 189.8 110.3 182.9 116.7 174.3C123.3 165.5 128.1 155.3 131.1 143.7C134.3 132.1 135.9 119.9 135.9 107.1C135.9 94.5 134.3 82.4 131.1 70.8C128.1 59 123.3 48.7 116.7 39.9C110.1 31.1 101.7 24.1 91.5 18.9C81.5 13.5 69.5 10.8 55.5 10.8H42.6C41.6 12.4 41 14.4 40.8 16.8C40.6 19 40.5 21.1 40.5 23.1V189.9C40.5 191.9 40.6 194.1 40.8 196.5C41 198.9 41.7 200.9 42.9 202.5H55.5Z" fill="#2D2D2D"/>
<path d="M899.183 213H858.683V72.4199H899.183V213ZM899.183 62.4199H858.683V34.5H816.683V24C820.683 23.8 825.882 23.3 832.282 22.5C838.882 21.7 845.583 20.3996 852.383 18.5996C859.183 16.7997 865.482 14.4003 871.282 11.4004C877.082 8.40039 881.283 4.6 883.883 0H899.183V62.4199Z" fill="url(#paint0_linear_76_27)"/>
<defs>
<linearGradient id="paint0_linear_76_27" x1="833.717" y1="-18.4858" x2="857.933" y2="96.1663" gradientUnits="userSpaceOnUse">
<stop stop-color="#FFB941"/>
<stop offset="1" stop-color="#2D2D2D"/>
</linearGradient>
</defs>
</svg>
